<svg width="100" height="100" viewBox="0 0 100 100" fill="none" xmlns="http://www.w3.org/2000/svg">
<rect x="1" y="1" width="98" height="98" rx="49" fill="white"/>
<rect x="1" y="1" width="98" height="98" rx="49" stroke="#CEAB93" stroke-width="2"/>
<path d="M31.7242 25.5849C35.2904 24.3171 39.4254 25.1103 42.2798 27.9647C45.5216 31.2065 46.105 36.1 44.0296 39.9362L75 70.91L70.91 75L39.9388 44.0282C36.1023 46.1052 31.2073 45.5224 27.9647 42.2798C25.1095 39.4246 24.3166 35.2881 25.586 31.7212L32.0548 38.1898C33.7489 39.884 36.4957 39.884 38.1898 38.1898C39.8839 36.4957 39.8839 33.7489 38.1898 32.0548L31.7242 25.5849ZM61.7074 31.0323L70.91 25.9198L75 30.0098L69.8874 39.2123L64.7748 40.2348L58.6398 46.3698L54.5498 42.2798L60.6848 36.1448L61.7074 31.0323ZM42.2798 54.5498L46.3699 58.6401L31.0323 73.9776C29.9028 75.107 28.0717 75.107 26.9423 73.9776C25.8935 72.9287 25.8186 71.275 26.7175 70.1399L26.9423 69.8877L42.2798 54.5498Z" fill="#CEAB93"/>
</svg>
