<svg width="1923" height="1229" viewBox="0 0 1923 1229" fill="none" xmlns="http://www.w3.org/2000/svg">
<path d="M517.937 1012.58H466.294L462.329 1024.05C461.196 1027.26 460.252 1030.42 459.544 1033.4C458.836 1036.42 458.458 1039.63 458.458 1043.03C458.458 1050.91 462.612 1055.16 471.062 1055.73V1063.71H419.467V1055.73C422.441 1055.4 425.037 1054.31 427.303 1052.57C429.569 1050.77 431.599 1048.41 433.44 1045.34C435.281 1042.23 437.263 1037.88 439.387 1032.12L489.803 897.849H522.044L561.932 1033.26C563.726 1039.3 565.189 1043.55 566.369 1046.14C567.549 1048.65 569.154 1050.72 571.09 1052.28C573.025 1053.84 575.763 1055.02 579.209 1055.73V1063.71H512.461V1055.73C516.662 1055.26 519.778 1054.08 521.808 1052.24C523.837 1050.39 524.829 1047.75 524.829 1044.35C524.829 1041.9 524.546 1039.06 524.026 1035.99C523.46 1032.93 522.563 1029.05 521.241 1024.38L517.937 1012.58ZM470.92 998.413H514.396L495.09 930.379L470.92 998.413ZM807.163 898.699V906.678C804.284 907.48 801.97 908.377 800.271 909.274C798.572 910.219 797.297 911.446 796.353 913.099C795.456 914.704 794.843 916.781 794.559 919.284C794.276 921.833 794.134 925.044 794.134 928.915V1049.31H817.548C822.269 1049.31 825.951 1048.6 828.83 1047.18C831.615 1045.72 834.07 1043.45 836.147 1040.48C838.224 1037.46 839.971 1033.49 841.481 1028.63C842.992 1023.77 844.172 1019.19 845.022 1014.89H861.591L858.9 1063.76H743.719V1055.78C746.74 1054.97 749.101 1054.08 750.8 1053.09C752.547 1052.14 753.821 1050.82 754.624 1049.17C755.473 1047.51 756.04 1045.39 756.276 1042.89C756.512 1040.34 756.654 1037.13 756.654 1033.26V929.151C756.654 925.374 756.512 922.164 756.323 919.614C756.134 917.017 755.615 914.94 754.765 913.288C753.963 911.682 752.641 910.408 750.942 909.369C749.195 908.377 746.835 907.48 743.719 906.631V898.652H807.163V898.699ZM1080.81 1033.35C1080.81 1036.14 1080.91 1038.73 1081.05 1041.19C1081.24 1043.64 1081.52 1045.58 1081.99 1047.14C1082.51 1048.65 1083.17 1049.92 1084.12 1050.96C1085.06 1052.05 1086.33 1052.94 1087.94 1053.7C1089.54 1054.5 1091.53 1055.16 1093.84 1055.73V1063.71H1030.44V1055.73C1033.46 1054.93 1035.83 1054.03 1037.52 1053.13C1039.27 1052.19 1040.55 1050.91 1041.35 1049.26C1042.2 1047.61 1042.76 1045.48 1043 1042.98C1043.24 1040.43 1043.38 1037.22 1043.38 1033.35V929.01C1043.38 925.185 1043.24 921.975 1043.05 919.472C1042.86 916.97 1042.34 914.893 1041.49 913.24C1040.69 911.588 1039.37 910.266 1037.67 909.322C1035.92 908.33 1033.56 907.48 1030.44 906.631V898.652H1093.89V906.631C1090.58 907.528 1088.18 908.472 1086.57 909.463C1085.01 910.502 1083.79 911.682 1083.03 913.193C1082.23 914.657 1081.61 916.545 1081.33 918.859C1081 921.219 1080.86 924.619 1080.86 929.151V1033.35H1080.81ZM1330.81 1063.71H1267.37V1055.73C1270.39 1054.93 1272.75 1054.03 1274.45 1053.13C1276.19 1052.19 1277.47 1050.91 1278.27 1049.26C1279.12 1047.61 1279.69 1045.48 1279.92 1042.98C1280.16 1040.43 1280.3 1037.22 1280.3 1033.35V929.151C1280.3 925.374 1280.16 922.164 1279.97 919.614C1279.78 917.017 1279.26 914.94 1278.41 913.288C1277.61 911.682 1276.29 910.408 1274.59 909.369C1272.84 908.377 1270.48 907.48 1267.37 906.631V898.652H1337.8C1347.33 898.652 1355.4 899.313 1362.06 900.634C1368.72 902.004 1374.52 904.034 1379.53 906.725C1383.73 908.991 1387.27 911.824 1390.15 915.271C1393.03 918.717 1395.25 922.683 1396.85 927.215C1398.46 931.748 1399.26 937.083 1399.26 943.079C1399.26 950.964 1397.84 957.762 1395.1 963.381C1392.32 969.046 1388.54 973.72 1383.82 977.497C1379.1 981.227 1372.82 984.768 1364.94 988.073V989.253C1370.89 991.85 1375.84 995.296 1379.72 999.593C1383.63 1003.89 1387.17 1009.37 1390.34 1015.98L1397.94 1032.41C1401.33 1039.77 1404.69 1045.25 1408.04 1048.93C1411.39 1052.61 1415.35 1054.83 1419.98 1055.63V1063.61H1373.44C1368.72 1057.19 1363.48 1047.56 1357.58 1034.86L1348.13 1014.18C1345.35 1008.04 1342.89 1003.7 1340.91 1001.1C1338.88 998.554 1336.81 996.76 1334.68 995.769C1332.56 994.824 1329.25 994.305 1324.82 994.305H1317.78V1033.26C1317.78 1039.3 1318.06 1043.55 1318.58 1045.91C1319.15 1048.36 1320.28 1050.3 1321.89 1051.72C1323.49 1053.18 1326.47 1054.45 1330.81 1055.59V1063.71ZM1317.78 913.099V980.283H1329.72C1336.14 980.283 1341.48 979.433 1345.68 977.733C1349.83 975.986 1353.19 973.579 1355.64 970.462C1358.1 967.346 1359.79 963.711 1360.69 959.509C1361.64 955.307 1362.11 950.727 1362.11 945.723C1362.11 934.769 1359.56 926.554 1354.41 921.031C1349.27 915.554 1341.57 912.815 1331.42 912.815C1324.48 912.863 1319.95 912.957 1317.78 913.099ZM1667.43 1012.58H1615.84L1611.87 1024.05C1610.74 1027.26 1609.79 1030.42 1609.09 1033.4C1608.38 1036.42 1608 1039.63 1608 1043.03C1608 1050.91 1612.15 1055.16 1620.6 1055.73V1063.71H1569.01V1055.73C1571.98 1055.4 1574.58 1054.31 1576.84 1052.57C1579.11 1050.77 1581.14 1048.41 1582.98 1045.34C1584.82 1042.23 1586.8 1037.88 1588.93 1032.12L1639.34 897.849H1671.58L1711.47 1033.26C1713.27 1039.3 1714.73 1043.55 1715.91 1046.14C1717.09 1048.65 1718.7 1050.72 1720.63 1052.28C1722.57 1053.84 1725.3 1055.02 1728.75 1055.73V1063.71H1662V1055.73C1666.2 1055.26 1669.32 1054.08 1671.3 1052.24C1673.33 1050.39 1674.32 1047.75 1674.32 1044.35C1674.32 1041.9 1674.04 1039.06 1673.52 1035.99C1672.95 1032.93 1672.06 1029.05 1670.74 1024.38L1667.43 1012.58ZM1620.46 998.413H1663.94L1644.63 930.379L1620.46 998.413Z" fill="#F2F2F2"/>
<path d="M411.958 1214.79V1229H1736.25V1214.79H411.958ZM411.958 1115.97V1203.41H1736.25V1115.97H411.958ZM672.72 1185.89H662.476V1131.74H672.72V1185.89ZM800.787 1185.89H790.921L767.649 1150.39V1185.89H757.406V1131.74H767.177L790.496 1167.39V1131.74H800.787V1185.89ZM910.823 1141.94H900.909V1185.89H890.43V1141.94H880.847V1131.74H910.823V1141.94ZM1020.48 1141.84H1001.17V1151.57H1020.48V1161.53H1001.17V1175.79H1020.48V1185.89H990.93V1131.74H1020.48V1141.84ZM1127.21 1185.89L1115.03 1162.95H1113.99V1185.89H1103.75V1131.74H1114.7C1120.7 1131.74 1124.95 1132.26 1127.49 1133.35C1130.04 1134.39 1132.07 1136.18 1133.63 1138.68C1135.19 1141.14 1135.94 1144.06 1135.94 1147.46C1135.94 1151 1135.09 1153.98 1133.4 1156.39C1131.7 1158.79 1129.15 1160.59 1125.7 1161.82L1138.49 1185.89H1127.21ZM1229.32 1185.89H1219.07V1131.74H1229.32V1185.89ZM1359.37 1179.05C1353.89 1184.53 1347.33 1187.26 1339.54 1187.26C1331.42 1187.26 1324.67 1184.43 1319.29 1178.81C1313.91 1173.19 1311.22 1166.54 1311.22 1158.79C1311.22 1153.6 1312.49 1148.88 1314.99 1144.49C1317.5 1140.19 1320.94 1136.75 1325.33 1134.2C1329.72 1131.65 1334.44 1130.37 1339.49 1130.37C1347.14 1130.37 1353.7 1133.16 1359.22 1138.68C1364.75 1144.25 1367.49 1151 1367.49 1158.98C1367.49 1166.87 1364.79 1173.57 1359.37 1179.05ZM1474.45 1185.89L1462.27 1162.95H1461.24V1185.89H1450.99V1131.74H1461.94C1467.94 1131.74 1472.19 1132.26 1474.74 1133.35C1477.28 1134.39 1479.31 1136.18 1480.87 1138.68C1482.43 1141.14 1483.19 1144.06 1483.19 1147.46C1483.19 1151 1482.34 1153.98 1480.64 1156.39C1478.94 1158.79 1476.39 1160.59 1472.94 1161.82L1485.73 1185.89H1474.45ZM411.958 1090.34V1104.55H1736.25V1090.34H411.958Z" fill="#F2F2F2"/>
<path d="M1125.98 1147.32C1125.98 1149.35 1125.37 1150.77 1124.14 1151.62C1122.87 1152.51 1120.6 1152.94 1117.25 1152.94H1113.99V1141.75H1116.87C1119.66 1141.75 1121.55 1141.94 1122.58 1142.36C1123.62 1142.74 1124.47 1143.36 1125.09 1144.25C1125.7 1145.1 1125.98 1146.14 1125.98 1147.32Z" fill="#F2F2F2"/>
<path d="M1357.1 1158.94C1357.1 1164.13 1355.4 1168.47 1351.96 1172.01C1348.51 1175.51 1344.4 1177.3 1339.54 1177.3C1335.2 1177.3 1331.42 1175.93 1328.07 1173.19C1323.77 1169.75 1321.65 1164.98 1321.65 1158.98C1321.65 1153.6 1323.35 1149.21 1326.75 1145.72C1330.15 1142.22 1334.35 1140.48 1339.35 1140.48C1344.26 1140.48 1348.46 1142.27 1351.91 1145.86C1355.35 1149.4 1357.1 1153.79 1357.1 1158.94Z" fill="#F2F2F2"/>
<path d="M1473.23 1147.32C1473.23 1149.35 1472.61 1150.77 1471.38 1151.62C1470.11 1152.51 1467.84 1152.94 1464.54 1152.94H1461.24V1141.75H1464.11C1466.9 1141.75 1468.79 1141.94 1469.83 1142.36C1470.87 1142.74 1471.71 1143.36 1472.33 1144.25C1472.94 1145.1 1473.23 1146.14 1473.23 1147.32Z" fill="#F2F2F2"/>
<path d="M993.526 207.501C993.903 208.02 994.092 208.634 994.092 209.342C994.092 210.711 993.242 211.892 992.015 212.317C987.106 215.81 960.765 235.545 941.034 271.947C940.656 272.891 939.853 273.694 938.815 273.93C938.532 273.977 938.296 274.024 938.012 274.024C936.927 274.024 935.935 273.505 935.369 272.56C935.227 272.324 935.086 272.088 934.991 271.852C932.442 266.895 915.496 235.498 884.151 212.175C883.018 211.703 882.216 210.57 882.216 209.248V209.153C882.216 208.54 882.357 207.926 882.688 207.407C883.066 206.793 883.632 206.321 884.293 206.085C888.353 203.252 914.976 183.753 935.086 146.832C935.416 145.416 936.691 144.33 938.201 144.33C938.815 144.33 939.429 144.519 939.901 144.802C940.561 145.18 941.081 145.794 941.364 146.549C943.299 150.373 960.246 182.573 992.393 206.368C992.818 206.746 993.242 207.076 993.526 207.501Z" fill="#F2F2F2"/>
<path d="M943.441 298.575C943.63 298.858 943.771 299.236 943.771 299.566C943.771 300.322 943.299 300.983 942.638 301.219C939.948 303.154 925.456 314.013 914.599 334.032C914.363 334.551 913.938 334.976 913.371 335.118C913.23 335.165 913.088 335.165 912.899 335.165C912.286 335.165 911.766 334.882 911.436 334.362C911.341 334.221 911.294 334.126 911.247 333.985C909.831 331.246 900.531 313.966 883.254 301.124C882.641 300.888 882.216 300.227 882.216 299.519V299.472C882.216 299.141 882.31 298.811 882.452 298.528C882.641 298.197 882.971 297.961 883.302 297.819C885.52 296.261 900.201 285.497 911.247 265.243C911.436 264.487 912.097 263.873 912.946 263.873C913.277 263.873 913.607 263.968 913.891 264.157C914.268 264.393 914.551 264.723 914.693 265.101C915.779 267.225 925.078 284.93 942.78 298.008C943.063 298.15 943.299 298.339 943.441 298.575Z" fill="#F2F2F2"/>
<path d="M887.314 250.842C887.597 251.22 887.739 251.692 887.739 252.164C887.739 253.156 887.078 254.006 886.228 254.336C882.64 256.886 863.381 271.333 848.936 297.961C848.653 298.669 848.039 299.236 847.284 299.424C847.095 299.472 846.906 299.472 846.67 299.472C845.868 299.472 845.16 299.094 844.735 298.433C844.64 298.291 844.546 298.102 844.499 297.914C842.61 294.278 830.243 271.333 807.301 254.242C806.451 253.864 805.885 253.061 805.885 252.07V252.023C805.885 251.598 805.979 251.126 806.215 250.748C806.498 250.323 806.876 249.945 807.395 249.804C810.369 247.726 829.865 233.468 844.546 206.462C844.782 205.423 845.726 204.668 846.812 204.668C847.284 204.668 847.709 204.81 848.039 205.046C848.558 205.329 848.936 205.801 849.125 206.321C850.541 209.153 862.956 232.665 886.464 250.134C886.842 250.276 887.125 250.559 887.314 250.842Z" fill="#F2F2F2"/>
<path d="M1912.71 420.856C1508.58 194.092 1322.6 603.476 1030.87 690.112C721.626 757.721 533.135 524.961 314.623 627.271C490.556 588.415 653.745 732.745 880.849 765.889C569.153 760.695 487.346 494.225 0 767.541C597.146 535.489 566.604 961.445 1053.86 770.374C1433.43 597.952 1459.07 280.681 1912.71 420.856Z" fill="#F2F2F2"/>
<path d="M1923 443.141C1725.97 365.806 1587.65 423.17 1494.38 504.518L1510.66 539.455C1604.03 456.502 1706.85 392.859 1923 443.141Z" fill="#F2F2F2"/>
<path d="M887.08 603.193L951.043 575.573L1157.8 181.062L1295.12 486.482C1312.07 446.965 1358.09 405.606 1409.69 409.383L1192.4 0L887.08 603.193Z" fill="#F2F2F2"/>
<path d="M1357.24 626.185L1470.02 523.119L1563.53 699.318C1589.49 736.947 1622.77 765.464 1670.02 783.546H1375.46C1395.67 776.275 1412.94 761.498 1408.27 738.222L1357.24 626.185Z" fill="#F2F2F2"/>
<path d="M1341.29 634.967L1355.03 673.823C1263.92 742.565 1126.32 816.831 973.938 819.428C1147.89 783.452 1265.1 712.821 1341.29 634.967Z" fill="#F2F2F2"/>
</svg>
