<svg width="157" height="100" viewBox="0 0 157 100" fill="none" xmlns="http://www.w3.org/2000/svg">
<path d="M42.1499 82.3903H37.9472L37.6245 83.3238C37.5323 83.585 37.4555 83.8424 37.3979 84.0844C37.3402 84.3303 37.3095 84.5915 37.3095 84.8681C37.3095 85.5096 37.6476 85.8554 38.3352 85.9015V86.5507H34.1364V85.9015C34.3784 85.8746 34.5897 85.7862 34.7741 85.6441C34.9585 85.4981 35.1237 85.306 35.2735 85.0563C35.4233 84.8028 35.5846 84.4494 35.7575 83.9807L39.8603 73.0552H42.4841L45.7302 84.0729C45.8762 84.5646 45.9953 84.9103 46.0913 85.1216C46.1874 85.3252 46.318 85.4943 46.4755 85.621C46.633 85.7478 46.8558 85.8438 47.1363 85.9015V86.5507H41.7043V85.9015C42.0462 85.8631 42.2997 85.767 42.4649 85.6172C42.6301 85.4674 42.7108 85.2522 42.7108 84.9757C42.7108 84.7759 42.6877 84.5454 42.6455 84.2957C42.5994 84.046 42.5264 83.731 42.4188 83.3507L42.1499 82.3903ZM38.3237 81.2378H41.8618L40.2906 75.7021L38.3237 81.2378ZM65.6872 73.1244V73.7736C65.4529 73.8389 65.2646 73.9119 65.1263 73.9849C64.988 74.0617 64.8843 74.1616 64.8075 74.2961C64.7345 74.4267 64.6846 74.5957 64.6615 74.7993C64.6385 75.0068 64.6269 75.268 64.6269 75.583V85.379H66.5324C66.9165 85.379 67.2162 85.3214 67.4505 85.2061C67.6772 85.0871 67.8769 84.9027 68.0459 84.6606C68.215 84.4148 68.3571 84.0921 68.48 83.6964C68.603 83.3007 68.699 82.9281 68.7682 82.5785H70.1166L69.8976 86.5545H60.5241V85.9053C60.77 85.84 60.9621 85.767 61.1004 85.6863C61.2425 85.6095 61.3462 85.5019 61.4115 85.3675C61.4807 85.233 61.5268 85.0602 61.546 84.8566C61.5652 84.6491 61.5767 84.3879 61.5767 84.0729V75.6022C61.5767 75.2949 61.5652 75.0337 61.5498 74.8262C61.5345 74.6149 61.4922 74.4459 61.4231 74.3114C61.3578 74.1808 61.2502 74.0771 61.1119 73.9926C60.9698 73.9119 60.7777 73.8389 60.5241 73.7698V73.1206H65.6872V73.1244ZM87.9568 84.0806C87.9568 84.3072 87.9645 84.5185 87.976 84.7183C87.9914 84.918 88.0145 85.0755 88.0529 85.2023C88.0951 85.3252 88.1489 85.429 88.2257 85.5135C88.3026 85.6018 88.4063 85.6748 88.5369 85.7363C88.6675 85.8016 88.8289 85.8554 89.0171 85.9015V86.5507H83.8579V85.9015C84.1037 85.8362 84.2958 85.7632 84.4341 85.6902C84.5762 85.6134 84.68 85.5096 84.7453 85.3752C84.8144 85.2407 84.8605 85.0679 84.8797 84.8642C84.8989 84.6568 84.9105 84.3956 84.9105 84.0806V75.5907C84.9105 75.2795 84.8989 75.0183 84.8836 74.8147C84.8682 74.6111 84.8259 74.4421 84.7568 74.3076C84.6915 74.1731 84.5839 74.0656 84.4456 73.9888C84.3035 73.9081 84.1114 73.8389 83.8579 73.7698V73.1206H89.0209V73.7698C88.752 73.8428 88.5561 73.9196 88.4255 74.0003C88.2987 74.0848 88.1988 74.1808 88.1374 74.3038C88.0721 74.4228 88.0221 74.5765 87.9991 74.7647C87.9722 74.9568 87.9607 75.2334 87.9607 75.6022V84.0806H87.9568ZM108.302 86.5507H103.139V85.9015C103.385 85.8362 103.577 85.7632 103.715 85.6902C103.857 85.6134 103.961 85.5096 104.026 85.3752C104.095 85.2407 104.141 85.0679 104.161 84.8642C104.18 84.6568 104.191 84.3956 104.191 84.0806V75.6022C104.191 75.2949 104.18 75.0337 104.164 74.8262C104.149 74.6149 104.107 74.4459 104.038 74.3114C103.972 74.1808 103.865 74.0771 103.726 73.9926C103.584 73.9119 103.392 73.8389 103.139 73.7698V73.1206H108.87C109.646 73.1206 110.303 73.1743 110.845 73.2819C111.387 73.3933 111.859 73.5585 112.266 73.7775C112.608 73.9619 112.896 74.1924 113.131 74.4728C113.365 74.7532 113.546 75.0759 113.676 75.4447C113.807 75.8135 113.872 76.2476 113.872 76.7355C113.872 77.377 113.757 77.9302 113.534 78.3874C113.307 78.8483 113 79.2287 112.616 79.536C112.232 79.8395 111.721 80.1276 111.079 80.3965V80.4925C111.563 80.7038 111.967 80.9843 112.282 81.3338C112.601 81.6834 112.889 82.129 113.146 82.6669L113.765 84.0037C114.041 84.603 114.314 85.0486 114.587 85.3483C114.859 85.6479 115.182 85.8285 115.559 85.8938V86.543H111.771C111.387 86.0206 110.96 85.2369 110.48 84.2035L109.712 82.5209C109.485 82.0215 109.285 81.6681 109.124 81.4568C108.959 81.2493 108.79 81.1033 108.617 81.0227C108.444 80.9458 108.175 80.9036 107.814 80.9036H107.242V84.0729C107.242 84.5646 107.265 84.9103 107.307 85.1024C107.353 85.3022 107.445 85.4597 107.576 85.5749C107.706 85.694 107.948 85.7977 108.302 85.8899V86.5507ZM107.242 74.2961V79.7626H108.213C108.736 79.7626 109.17 79.6935 109.512 79.5552C109.85 79.4131 110.123 79.2171 110.322 78.9636C110.522 78.71 110.661 78.4142 110.734 78.0723C110.81 77.7304 110.849 77.3578 110.849 76.9506C110.849 76.0594 110.641 75.3909 110.223 74.9415C109.804 74.4958 109.178 74.273 108.352 74.273C107.787 74.2769 107.418 74.2845 107.242 74.2961ZM135.696 82.3903H131.497L131.175 83.3238C131.082 83.585 131.006 83.8424 130.948 84.0844C130.89 84.3303 130.86 84.5915 130.86 84.8681C130.86 85.5096 131.198 85.8554 131.885 85.9015V86.5507H127.686V85.9015C127.928 85.8746 128.14 85.7862 128.324 85.6441C128.508 85.4981 128.674 85.306 128.824 85.0563C128.973 84.8028 129.135 84.4494 129.308 83.9807L133.41 73.0552H136.034L139.28 84.0729C139.426 84.5646 139.545 84.9103 139.641 85.1216C139.737 85.3252 139.868 85.4943 140.026 85.621C140.183 85.7478 140.406 85.8438 140.686 85.9015V86.5507H135.254V85.9015C135.596 85.8631 135.85 85.767 136.011 85.6172C136.176 85.4674 136.257 85.2522 136.257 84.9757C136.257 84.7759 136.234 84.5454 136.192 84.2957C136.146 84.046 136.073 83.731 135.965 83.3507L135.696 82.3903ZM131.874 81.2378H135.412L133.841 75.7021L131.874 81.2378Z" fill="#F2F2F2"/>
<path d="M33.5252 98.8437V100H141.297V98.8437H33.5252ZM33.5252 90.8033V97.9179H141.297V90.8033H33.5252ZM54.7461 96.4927H53.9125V92.0864H54.7461V96.4927ZM65.1683 96.4927H64.3654L62.4715 93.6038V96.4927H61.6379V92.0864H62.4331L64.3308 94.9868V92.0864H65.1683V96.4927ZM74.123 92.9161H73.3163V96.4927H72.4634V92.9161H71.6836V92.0864H74.123V92.9161ZM83.047 92.9085H81.4758V93.6998H83.047V94.5104H81.4758V95.6706H83.047V96.4927H80.6421V92.0864H83.047V92.9085ZM91.7328 96.4927L90.7416 94.6257H90.6571V96.4927H89.8235V92.0864H90.7148C91.2026 92.0864 91.5484 92.1286 91.7558 92.217C91.9633 92.3015 92.1285 92.4475 92.2552 92.6511C92.382 92.8508 92.4435 93.089 92.4435 93.3656C92.4435 93.6537 92.3743 93.8957 92.236 94.0917C92.0977 94.2876 91.8903 94.4336 91.6098 94.5335L92.6509 96.4927H91.7328ZM100.042 96.4927H99.2085V92.0864H100.042V96.4927ZM110.626 95.9356C110.18 96.3812 109.646 96.6041 109.012 96.6041C108.351 96.6041 107.802 96.3736 107.364 95.9164C106.926 95.4593 106.707 94.9176 106.707 94.2876C106.707 93.865 106.811 93.4809 107.015 93.1236C107.218 92.774 107.499 92.4936 107.856 92.2861C108.213 92.0787 108.597 91.975 109.008 91.975C109.631 91.975 110.165 92.2016 110.614 92.6511C111.064 93.1044 111.286 93.6537 111.286 94.303C111.286 94.9445 111.067 95.49 110.626 95.9356ZM119.991 96.4927L119 94.6257H118.916V96.4927H118.082V92.0864H118.973C119.461 92.0864 119.807 92.1286 120.014 92.217C120.222 92.3015 120.387 92.4475 120.514 92.6511C120.641 92.8508 120.702 93.089 120.702 93.3656C120.702 93.6537 120.633 93.8957 120.495 94.0917C120.356 94.2876 120.149 94.4336 119.868 94.5335L120.91 96.4927H119.991ZM33.5252 88.7173V89.8736H141.297V88.7173H33.5252Z" fill="#F2F2F2"/>
<path d="M91.6328 93.3541C91.6328 93.5193 91.5828 93.6345 91.4829 93.7037C91.3792 93.7767 91.1948 93.8112 90.9221 93.8112H90.657V92.9008H90.8913C91.118 92.9008 91.2717 92.9162 91.3562 92.9507C91.4407 92.9815 91.5098 93.0314 91.5598 93.1044C91.6097 93.1735 91.6328 93.2581 91.6328 93.3541Z" fill="#F2F2F2"/>
<path d="M110.441 94.2991C110.441 94.7217 110.303 95.0751 110.022 95.3632C109.742 95.6475 109.408 95.7935 109.012 95.7935C108.659 95.7935 108.351 95.6821 108.079 95.4593C107.729 95.1788 107.556 94.7908 107.556 94.303C107.556 93.865 107.694 93.5078 107.971 93.2235C108.248 92.9392 108.59 92.7971 108.997 92.7971C109.396 92.7971 109.738 92.943 110.019 93.235C110.299 93.5231 110.441 93.8804 110.441 94.2991Z" fill="#F2F2F2"/>
<path d="M119.892 93.3541C119.892 93.5193 119.842 93.6345 119.742 93.7037C119.638 93.7767 119.454 93.8112 119.185 93.8112H118.916V92.9008H119.15C119.377 92.9008 119.531 92.9162 119.615 92.9507C119.7 92.9815 119.769 93.0314 119.819 93.1044C119.869 93.1735 119.892 93.2581 119.892 93.3541Z" fill="#F2F2F2"/>
<path d="M80.8535 16.8838C80.8842 16.926 80.8996 16.976 80.8996 17.0336C80.8996 17.145 80.8304 17.241 80.7305 17.2756C80.331 17.5599 78.1874 19.1657 76.5816 22.1275C76.5509 22.2044 76.4856 22.2697 76.4011 22.2889C76.378 22.2927 76.3588 22.2966 76.3358 22.2966C76.2474 22.2966 76.1667 22.2543 76.1206 22.1775C76.1091 22.1583 76.0976 22.1391 76.0899 22.1198C75.8825 21.7165 74.5033 19.1618 71.9525 17.2641C71.8603 17.2257 71.795 17.1335 71.795 17.0259V17.0182C71.795 16.9683 71.8066 16.9184 71.8334 16.8761C71.8642 16.8262 71.9103 16.7877 71.9641 16.7685C72.2944 16.538 74.4611 14.9515 76.0976 11.9474C76.1245 11.8321 76.2282 11.7438 76.3511 11.7438C76.4011 11.7438 76.451 11.7591 76.4894 11.7822C76.5432 11.8129 76.5855 11.8628 76.6085 11.9243C76.766 12.2355 78.1452 14.8554 80.7613 16.7916C80.7958 16.8223 80.8304 16.8492 80.8535 16.8838Z" fill="#F2F2F2"/>
<path d="M76.7776 24.2942C76.7929 24.3172 76.8044 24.348 76.8044 24.3749C76.8044 24.4363 76.766 24.4901 76.7122 24.5093C76.4933 24.6668 75.3139 25.5504 74.4303 27.1792C74.4111 27.2215 74.3766 27.256 74.3305 27.2676C74.3189 27.2714 74.3074 27.2714 74.2921 27.2714C74.2421 27.2714 74.1999 27.2484 74.173 27.2061C74.1653 27.1946 74.1614 27.1869 74.1576 27.1754C74.0424 26.9525 73.2856 25.5465 71.8795 24.5016C71.8296 24.4824 71.795 24.4286 71.795 24.371V24.3672C71.795 24.3403 71.8027 24.3134 71.8142 24.2903C71.8296 24.2634 71.8565 24.2442 71.8834 24.2327C72.0639 24.1059 73.2587 23.2301 74.1576 21.582C74.173 21.5206 74.2267 21.4706 74.2959 21.4706C74.3228 21.4706 74.3497 21.4783 74.3727 21.4937C74.4035 21.5129 74.4265 21.5398 74.438 21.5705C74.5264 21.7434 75.2832 23.184 76.7238 24.2481C76.7468 24.2596 76.766 24.275 76.7776 24.2942Z" fill="#F2F2F2"/>
<path d="M72.2099 20.4103C72.233 20.4411 72.2445 20.4795 72.2445 20.5179C72.2445 20.5986 72.1907 20.6677 72.1216 20.6946C71.8296 20.9021 70.2623 22.0776 69.0867 24.2442C69.0637 24.3018 69.0137 24.3479 68.9523 24.3633C68.9369 24.3672 68.9215 24.3672 68.9023 24.3672C68.837 24.3672 68.7794 24.3364 68.7448 24.2826C68.7372 24.2711 68.7295 24.2557 68.7256 24.2404C68.572 23.9446 67.5655 22.0776 65.6985 20.6869C65.6293 20.6562 65.5832 20.5909 65.5832 20.5102V20.5064C65.5832 20.4718 65.5909 20.4334 65.6101 20.4027C65.6332 20.3681 65.6639 20.3373 65.7062 20.3258C65.9482 20.1568 67.5347 18.9966 68.7295 16.7993C68.7487 16.7147 68.8255 16.6533 68.9139 16.6533C68.9523 16.6533 68.9869 16.6648 69.0138 16.684C69.056 16.7071 69.0867 16.7455 69.1021 16.7877C69.2174 17.0182 70.2277 18.9313 72.1408 20.3527C72.1715 20.3642 72.1946 20.3873 72.2099 20.4103Z" fill="#F2F2F2"/>
<path d="M155.657 34.2438C122.769 15.7927 107.633 49.103 83.8923 56.1523C58.7262 61.6534 43.3867 42.7145 25.6041 51.0392C39.9216 47.8775 53.202 59.6212 71.6838 62.318C46.3179 61.8955 39.6604 40.2136 0 62.4525C48.5959 43.5711 46.1104 78.2298 85.7632 62.683C116.653 48.6535 118.739 22.8382 155.657 34.2438Z" fill="#F2F2F2"/>
<path d="M156.494 36.057C140.46 29.7645 129.204 34.432 121.613 41.0511L122.938 43.8938C130.537 37.1442 138.904 31.9657 156.494 36.057Z" fill="#F2F2F2"/>
<path d="M72.1908 49.08L77.3962 46.8326L94.2223 14.7324L105.397 39.5836C106.777 36.3682 110.522 33.003 114.721 33.3103L97.0381 0L72.1908 49.08Z" fill="#F2F2F2"/>
<path d="M110.453 50.9508L119.63 42.5646L127.24 56.9014C129.353 59.9631 132.062 62.2834 135.907 63.7548H111.936C113.58 63.1632 114.986 61.9607 114.605 60.0668L110.453 50.9508Z" fill="#F2F2F2"/>
<path d="M109.155 51.6653L110.273 54.8269C102.858 60.4203 91.6601 66.4631 79.2595 66.6744C93.4157 63.7471 102.954 58.0001 109.155 51.6653Z" fill="#F2F2F2"/>
</svg>
